<svg width="375" height="159" viewBox="0 0 375 159" fill="none" xmlns="http://www.w3.org/2000/svg">
<path fill-rule="evenodd" clip-rule="evenodd" d="M0 82.8334C0 82.8334 8.26694 56.7552 43.2585 46.9406C78.25 37.1259 107 82.8334 146 82.8334C185 82.8334 183 9.89486 229 1.32984C275 -7.23519 277.625 29.1374 308 46.9406C338.375 64.7438 375 15.9012 375 15.9012V159H0V82.8334Z" fill="#FFD9B1"/>
<path opacity="0.7" fill-rule="evenodd" clip-rule="evenodd" d="M375 96C375 96 342.273 119 315 79.7917C287.727 40.5834 268 108.708 229 108.708C190 108.708 177.508 56 143 51C108.492 46 99.375 77.4115 69 89.1667C38.625 100.922 0 52 0 52V159H375V96Z" fill="#FF8900"/>
</svg>
